<svg xmlns="http://www.w3.org/2000/svg" viewBox="0 0 145 40">
  <g fill="none" fill-rule="nonzero">
    <g fill="#2B2B2B">
      <path d="M29.4 28.9300005l3.55-16.26000001h11.8l-.82 3.66H36.3l-.56 2.53h7.49l-.75 3.64h-7.53l-1.4 6.41000001zM53.55 18.55000049l.32-1.39h3.69L54.98 28.9300005h-3.69l.28-1.37c-.78481 1.0490672-2.0198678 1.6647417-3.33 1.66-2.6 0-4.36-1.73-4.36-4.87 0-3.41000001 2.07-7.48000001 6.13-7.48000001 1.3852912-.06024506 2.7106727.56874957 3.54 1.68zm-5.84 5.00000001c-.033637.6180705.1922973 1.2221188.6232902 1.6664022s1.027903.6884535 1.6467098.6735978c.8602126-.0221122 1.6661827-.4250972 2.2-1.1l.79-3.56000001c-.5629709-.69486663-1.4159208-1.08995598-2.31-1.07-.8472707.05086781-1.6381572.4415129-2.1934863 1.08343564-.555329.64192273-.8280987 1.48079207-.7565137 2.32656437v-.02zM57.41 27.0800005l2-2.42c1.0957317 1.0762952 2.5381438 1.7283931 4.07 1.84.75 0 1.23-.39 1.23-.85 0-.46-.89-.88-1.95-1.22-1.69-.51-3.84-1.17-3.84-3.41000001 0-2.24 1.76-4.14 5-4.14 1.9050331-.02790634 3.7532659.64871067 5.19 1.9l-1.78 2.31c-.9147677-.89496738-2.1310142-1.41570634-3.41-1.46-.86 0-1.3.41-1.3.83s.8.7 1.79 1c1.69.49 4 1.2 4 3.51000001 0 2.31-2 4.24-5.29 4.24-2.102694.0288533-4.1399053-.7310872-5.71-2.13zM71 26.4400005a6.73999248 6.73999248 0 0 1 .07-.85l1.14-5.19000001h-1.93l.72-3.24h1.93l.7-3.22h3.72l-.7 3.22h2.36l-.72 3.24h-2.37l-.87 4.00000001a3.10000435 3.10000435 0 0 0-.07.53c0 .59.36 1 1.11 1 .2570136.0011118.5094426-.0680468.73-.2v3c-.6.3677554-1.2971618.5455316-2 .51-2.23-.02-3.82-.9-3.82-2.8zM78.82 23.8800005c-.0402889-1.83911762.6608284-3.61715133 1.9455068-4.93380556 1.2846783-1.31665422 3.0449409-2.06126472 4.8844932-2.06619445 1.4429169-.10721259 2.8615278.41588874 3.8894197 1.43419213 1.027892 1.01830338 1.5642654 2.4319496 1.4705803 3.87580787a10.3000022 10.3000022 0 0 1-.25 2.05000001h-8.28v.14c.3166376 1.2571758 1.5110342 2.0889877 2.8 1.95.9606613.0192191 1.9071428-.2338694 2.73-.73l1.13 2.49c-1.2445974.7719212-2.6857212 1.1677961-4.15 1.14-3.69-.01-6.17-1.96-6.17-5.35zm8.88-2.09000001a.52000199.52000199 0 0 0 0-.17c-.0374687-.54436597-.2957274-1.04978838-.7149104-1.39910752-.419183-.34931913-.962891-.51220237-1.5050896-.45089248-1.2143921.02234622-2.2725737.83321335-2.61 2l4.83.02zM91.68 28.9300005l2.58-11.77000001h3.72l-.32 1.41c1.025885-1.12032568 2.4810589-1.74968836 4-1.73l-.79 3.66a4.85000037 4.85000037 0 0 0-1.2-.17c-1.0069012.02108648-1.9640045.44206801-2.66 1.17L95.4 28.9100005l-3.72.02zM100.92 28.9300005l3.56-16.26h7.79c1.2552984-.04423566 2.4734648.43015245 3.3682421 1.31168777.8947772.88153531 1.3872738 2.09249384 1.3617579 3.34831222 0 2.39-1.56 6.14000001-6.87 6.14000001h-3.86l-1.19 5.46h-4.16zm9.41-9.12000001c.582022.06109412 1.1637994-.11770664 1.6110487-.49513227.4472494-.37742562.7213197-.9208592.7589513-1.50486773-.002222-.42428601-.1864347-.82721327-.5058653-1.10647596-.3194306-.27926268-.7433545-.40799975-1.1641347-.35352404h-3.21l-.77 3.48 3.28-.02zM126.12 18.55000049l.31-1.39h3.69l-2.58 11.77000001h-3.69l.29-1.37c-.7868929 1.0465684-2.0206095 1.6615743-3.33 1.66-2.61 0-4.37-1.73-4.37-4.87 0-3.41000001 2.07-7.48000001 6.13-7.48000001 1.3880516-.0600776 2.7163688.56853446 3.55 1.68zm-5.84 5.00000001c-.0334797.6162967.1911203 1.218712.6198955 1.6626651.4287752.443953 1.0230163.6893644 1.6401045.6773349.8605583-.0207253 1.6670848-.4239885 2.2-1.1l.8-3.56000001c-.5679898-.69400748-1.4233865-1.08852234-2.32-1.07-.8454866.05344607-1.6338058.44520095-2.1869966 1.08682701-.5531908.64162605-.8246165 1.4790311-.7530034 2.323173v-.02zM130.34 30.2000005c.387253.125228.793202.1827373 1.2.17.528503.054273 1.042646-.1931344 1.33-.64l.46-.75-2-11.82000001h3.82l1 7.46000001 4.33-7.46000001h4l-8.23 13.45000001c-1.4 2.32-2.8 3.1-5 3.1-.724373.0083778-1.445853-.0927642-2.14-.3l1.23-3.21z"/>
    </g>
    <path fill="#F69138" d="M.56 27.12a1.6600061 1.6600061 0 0 1-.06.16h11v-6.71H2.34S.71 26.84.64 27a.80000034.80000034 0 0 1-.08.12z"/>
    <path fill="#F3BC18" d="M3.29 15.47L16.9.88l-2.72 11.58L.52 27.27z"/>
    <path fill="#F69138" d="M21.72 19.2h-7.54v-6.74h11.04z"/>
    <path fill="#F3BC18" d="M22.31 24.54L8.71 39.13l2.77-11.79 13.74-14.88z"/>
  </g>
</svg>
