<svg xmlns="http://www.w3.org/2000/svg" viewBox="0 0 60 60">
  <defs>
    <linearGradient id="a" x1="50.3337784%" x2="50.3337784%" y1="37.6551724%" y2="62.6551724%">
      <stop offset="0%" stop-color="#FFF" stop-opacity="0"/>
      <stop offset="100%" stop-color="#F8BF15"/>
    </linearGradient>
    <linearGradient id="b" x1="49.9332443%" x2="49.9332443%" y1="62.7931034%" y2="37.7931034%">
      <stop offset="0%" stop-color="#FFF" stop-opacity="0"/>
      <stop offset="100%" stop-color="#F8BF15"/>
    </linearGradient>
  </defs>
  <g fill="none" fill-rule="nonzero">
    <path fill="url(#a)" d="M30.549842 59.9827636c-.8567474 0-1.5512784-.694531-1.5512784-1.5512784 0-.8567474.694531-1.5512784 1.5512784-1.5512784 14.4785981 0 26.3303648-12.0689457 26.3303648-26.888825 0-14.8198794-11.8103993-26.88882506-26.3303648-26.88882506-.8567474-2e-8-1.5512783-.694531-1.5512783-1.55127837C28.9985637.69453099 29.6930946 1e-8 30.549842 0c16.2263717 0 29.4329216 13.4444125 29.4329216 29.9913818 0 16.5469692-13.2065499 29.9913818-29.4329216 29.9913818z"/>
    <path fill="url(#b)" d="M29.4329216 59.9827636C13.196208 59.9827636 0 46.538351 0 29.9913818 0 13.4444125 13.196208 0 29.4329216 0c.8567474 0 1.5512783.69453098 1.5512783 1.55127837 0 .85674738-.6945309 1.55127837-1.5512783 1.55127837-14.4785981 0-26.33036486 12.05860386-26.33036486 26.88882506 0 14.8302212 11.81039926 26.888825 26.33036486 26.888825.8567474 0 1.5512783.694531 1.5512783 1.5512784 0 .8567474-.6945309 1.5512784-1.5512783 1.5512784z"/>
  </g>
</svg>
